<?xml version="1.0" standalone="no"?>
<!DOCTYPE svg PUBLIC "-//W3C//DTD SVG 20010904//EN"
 "http://www.w3.org/TR/2001/REC-SVG-20010904/DTD/svg10.dtd">
<svg version="1.0" xmlns="http://www.w3.org/2000/svg"
  viewBox="0 0 906.000000 639.000000"
 preserveAspectRatio="xMidYMid meet">

<g transform="translate(0.000000,639.000000) scale(0.100000,-0.100000)"
fill="#000000" stroke="none">
<path d="M4797 5434 c-1 -1 -92 -4 -202 -8 -212 -7 -1391 -49 -1835 -66 -146
-5 -361 -13 -478 -17 -116 -3 -211 -8 -209 -10 4 -3 1091 -44 1567 -59 113 -3
214 -8 225 -9 11 -2 30 -4 43 -4 14 -1 -31 -28 -115 -70 -154 -77 -293 -167
-428 -275 l-90 -73 -590 -27 c-538 -25 -665 -33 -580 -35 17 -1 251 -12 520
-26 270 -14 501 -25 513 -25 21 0 17 -8 -40 -72 -82 -92 -140 -170 -212 -280
-32 -49 -63 -88 -69 -88 -7 0 -275 -14 -597 -30 -322 -16 -601 -30 -620 -31
-81 -3 24 -9 565 -34 314 -15 575 -28 582 -30 8 -3 -2 -36 -30 -97 -22 -51
-59 -149 -82 -218 l-42 -125 -429 -22 c-236 -11 -511 -24 -612 -28 -100 -4
-181 -10 -179 -12 5 -4 143 -12 771 -43 225 -11 411 -22 414 -25 2 -2 -3 -55
-11 -117 -9 -62 -19 -150 -23 -195 l-6 -81 -102 -6 c-104 -7 -1729 -75 -1833
-77 -121 -3 6 -10 822 -44 928 -38 1109 -46 1113 -50 1 -1 7 -51 13 -111 6
-60 18 -150 28 -201 l17 -91 -105 -6 c-58 -3 -196 -8 -306 -11 -110 -3 -252
-7 -315 -10 -63 -3 -344 -12 -625 -20 -510 -16 -617 -21 -495 -24 160 -3 1618
-51 1739 -56 74 -3 138 -8 143 -11 4 -3 8 -12 8 -20 0 -22 88 -250 127 -328
19 -37 33 -70 31 -72 -2 -1 -395 -15 -873 -29 -479 -14 -892 -29 -920 -33 -33
-5 47 -10 235 -15 157 -4 337 -10 400 -13 177 -8 1058 -34 1149 -34 l80 0 42
-62 c71 -106 159 -218 227 -289 l64 -69 -33 -1 c-19 0 -52 -2 -74 -4 -22 -1
-193 -6 -380 -9 -187 -4 -518 -11 -735 -16 -217 -5 -530 -12 -695 -16 -165 -4
-397 -10 -515 -14 l-215 -7 185 -2 c102 -1 199 -4 215 -6 17 -2 185 -6 375 -9
190 -4 426 -9 525 -12 99 -3 474 -11 833 -19 l652 -14 63 -52 c70 -59 280
-200 327 -219 48 -20 35 -30 -37 -30 -70 0 -1016 -25 -1298 -34 -88 -3 -263
-8 -390 -11 -126 -3 -282 -7 -345 -10 -63 -3 -236 -7 -385 -10 -148 -3 -306
-8 -350 -10 -44 -3 -215 -8 -380 -11 -165 -4 -352 -10 -415 -13 l-115 -7 115
-7 c63 -4 297 -12 520 -17 223 -6 558 -15 745 -20 187 -5 437 -12 555 -15 118
-3 265 -7 325 -10 61 -3 241 -7 400 -10 160 -3 317 -8 350 -10 33 -2 197 -7
365 -10 168 -3 328 -8 355 -10 28 -2 199 -7 380 -11 182 -3 350 -7 375 -9 25
-2 110 -9 188 -15 332 -26 703 34 1025 166 504 206 937 607 1182 1095 105 208
184 457 222 699 24 160 25 510 0 668 -54 341 -176 659 -362 937 -410 614
-1070 989 -1798 1023 -76 4 -139 6 -140 6z m294 -320 c485 -67 917 -301 1236
-669 506 -584 633 -1393 329 -2100 -235 -548 -708 -966 -1278 -1130 -989 -286
-2030 221 -2413 1174 -86 215 -131 428 -142 666 -22 508 152 999 492 1392 316
366 772 610 1250 672 118 15 404 12 526 -5z"/>
<path d="M4745 4759 c-191 -15 -411 -77 -586 -165 -49 -24 -103 -44 -121 -45
-25 0 -28 -2 -14 -8 15 -6 1 -19 -77 -75 -355 -252 -593 -649 -648 -1083 -16
-129 -6 -368 21 -495 74 -351 283 -682 560 -889 87 -65 158 -110 100 -64 -97
77 -261 256 -324 352 -154 235 -223 454 -233 738 -8 243 29 427 128 634 74
155 149 263 268 381 262 261 577 393 936 393 351 0 663 -129 905 -373 l95 -96
188 120 187 120 -27 29 c-54 57 -220 190 -322 259 -242 162 -478 243 -775 268
-71 5 -136 9 -145 9 -9 -1 -61 -5 -116 -10z"/>
<path d="M5940 3901 c-195 -108 -478 -266 -628 -349 -149 -84 -275 -152 -278
-152 -4 0 -36 14 -71 32 -56 27 -75 32 -143 32 -68 0 -87 -5 -144 -33 -249
-122 -248 -477 2 -598 49 -23 70 -27 142 -27 72 0 93 4 142 27 120 59 192 180
186 315 l-3 74 570 430 c574 434 593 448 585 448 -3 -1 -165 -90 -360 -199z
m-1033 -656 c14 -9 31 -32 39 -50 39 -94 -14 -189 -113 -201 -74 -9 -153 60
-153 133 0 122 123 186 227 118z"/>
</g>
</svg>
